# Alias OBJ Model File
# Exported from SketchUp, (c) 2000-2012 Trimble Navigation Limited
# File units = meters

mtllib 20211028_清凉亭草模_sux.mtl

g Mesh1 Group1 Model

usemtl __28
v 3.66667 7.42773 -1.25165
vt 377.409 293.822
vn -3.2581e-09 0.805992 0.591927
v -3.6 7.42773 -1.25165
vt 91.3191 293.822
v -1.59527 6.00806 0.681419
vt 170.246 199.397
v 1.59527 6.00806 0.681419
vt 295.857 199.397
f 1/1/1 2/2/1 3/3/1 4/4/1 

v -5.60473 6.00806 -3.97372
vt -12.3926 -118.446
vn 3.08404e-09 0.886657 -0.462428
vt -91.3191 2.42108
vt -377.409 2.42108
v 5.73808 6.00806 -3.97372
vt -458.96 -118.446
f 5/5/2 2/6/2 1/7/2 6/8/2 

vt -149.784 243.527
vn -0.577922 0.816092 5.42814e-09
vt -256.951 146.814
v -5.60473 6.00806 1.47041
vt -42.6159 146.814
f 2/9/3 5/10/3 7/11/3

vt -12.3926 256.951
vn -3.29251e-09 -1 8.86673e-09
v -4.72044 6.00806 -3.08942
vt -47.2073 222.137
vt -12.3926 42.6159
f 5/12/4 8/13/4 7/14/4

vt -458.96 256.951
f 8/13/4 5/12/4 6/15/4

v 4.85379 6.00806 -3.08942
vt -424.145 222.137
f 8/13/4 6/15/4 9/16/4

v 4.85379 6.00806 0.586115
vt -424.145 77.4305
f 9/16/4 6/15/4 10/17/4

v 5.73808 6.00806 1.47041
vt -458.96 42.6158
f 11/18/4 10/17/4 6/15/4

v 2.47956 6.00806 0.586115
vt -330.672 77.4305
f 11/18/4 12/19/4 10/17/4

v 1.59527 6.00806 1.47041
vt -295.857 42.6158
f 13/20/4 12/19/4 11/18/4

v 2.47956 6.00806 -0.202874
vt -330.672 108.493
f 13/20/4 14/21/4 12/19/4

vt -295.857 73.6784
f 4/22/4 14/21/4 13/20/4

vt -170.246 73.6784
f 3/23/4 14/21/4 4/22/4

v -2.47956 6.00806 0.586115
vt -135.431 77.4305
f 15/24/4 14/21/4 3/23/4

v -2.47956 6.00806 -0.202874
vt -135.431 108.493
f 14/21/4 15/24/4 16/25/4

v -2.47956 3.97766 0.586115
vt 77.4305 156.601
vn 1 -4.96833e-09 -3.71239e-08
v -2.47956 3.97766 -0.202874
vt 108.493 156.601
vt 108.493 236.538
vt 77.4305 236.538
f 17/26/5 18/27/5 16/28/5 15/29/5 

v -1.28049 2.83086 0.919505
vt 64.3049 -54.9563
vn 0.691181 0.722682 -9.13474e-08
vt 108.493 10.3661
vt 77.4305 10.3661
v -1.28049 2.83086 2.55285
vt -2.41377e-05 -54.9563
f 19/30/6 18/31/6 17/32/6 20/33/6 

v 1.2805 2.83086 0.919505
vt 283.465 124.63
vn 1.50658e-09 0.699456 0.714675
v 2.47956 3.97766 -0.202874
vt 330.672 187.805
vt 135.431 187.805
vt 182.638 124.63
f 21/34/7 22/35/7 18/36/7 19/37/7 

v 1.2805 2.83086 2.55285
vt 3.76835e-05 281.888
vn -0.691181 0.722682 9.18848e-08
v 2.47956 3.97766 0.586115
vt -77.4305 347.21
vt -108.493 347.21
vt -64.3049 281.888
f 23/38/8 24/39/8 22/40/8 21/41/8 

v 6.19556 2.83086 2.55285
vt 476.971 56.1402
vn 9.18389e-10 0.863867 0.503719
v 4.85379 3.97766 0.586115
vt 424.145 145.773
vt 330.672 145.773
vt 283.465 56.1402
v 5 2.83086 2.55285
vt 429.902 56.1402
f 25/42/9 26/43/9 24/44/9 23/45/9 27/46/9 

v 6.19556 2.83086 -5.05616
vt 299.567 -290.17
vn 0.649717 0.760176 -1.68329e-10
v 4.85379 3.97766 -3.08942
vt 222.137 -220.679
vt 77.4305 -220.679
vt -1.23574e-07 -290.17
v 6.19556 2.83086 -3.90083
vt 254.082 -290.17
v 6.19556 2.83086 -3.94062
vt 255.649 -290.17
f 28/47/10 29/48/10 26/49/10 25/50/10 30/51/10 31/52/10 

v -5.9195 2.83086 -5.05616
vt -2.57357e-08 -202.646
vn -4.32743e-11 0.863867 -0.503719
v -4.72044 3.97766 -3.08942
vt -47.2073 -113.014
vt -424.145 -113.014
vt -476.971 -202.646
v 5 2.83086 -5.05616
vt -429.902 -202.646
f 32/53/11 33/54/11 29/55/11 28/56/11 34/57/11 

v -5.9195 2.83086 2.55285
vt 0 77.033
vn -0.691181 0.722682 3.79422e-11
v -4.72044 3.97766 0.586115
vt -77.4305 142.355
vt -222.137 142.355
vt -299.567 77.033
f 35/58/12 36/59/12 33/60/12 32/61/12 

vt 182.638 56.1402
vn -1.89517e-18 0.863867 0.503719
vt 135.431 145.773
vt 47.2073 145.773
vt 0 56.1402
f 20/62/13 17/63/13 36/64/13 35/65/13 

vt 135.431 156.601
vn 8.05389e-17 1.33797e-08 1
vt 135.431 236.538
v -4.72044 6.00806 0.586115
vt 47.2073 236.538
vt 47.2073 156.601
f 17/66/14 15/67/14 37/68/14 36/69/14 

v -1.59527 6.00806 1.47041
vt -170.246 42.6159
vt -47.2073 77.4305
f 38/70/4 37/71/4 15/24/4

f 7/14/4 37/71/4 38/70/4

f 37/71/4 7/14/4 8/13/4

vt -77.4305 156.601
vn -1 4.96832e-09 2.19134e-08
vt -77.4305 236.538
vt -222.137 236.538
vt -222.137 156.601
f 36/72/15 37/73/15 8/74/15 33/75/15 

vt -47.2073 156.601
vn -7.03031e-11 -1.33797e-08 -1
vt -47.2073 236.538
vt -424.145 236.538
vt -424.145 156.601
f 33/76/16 8/77/16 9/78/16 29/79/16 

vn 1 -4.96832e-09 -7.4343e-10
vt 222.137 156.601
vt 222.137 236.538
f 26/26/17 29/80/17 9/81/17 10/29/17 

vt 424.145 156.601
vn 2.86864e-09 1.33797e-08 1
vt 424.145 236.538
vt 330.672 236.538
vt 330.672 156.601
f 26/82/18 10/83/18 12/84/18 24/85/18 

vn -1 4.96833e-09 3.92143e-08
vt -108.493 236.538
vt -108.493 156.601
f 24/72/19 12/73/19 14/86/19 22/87/19 

vn 1.44622e-09 1.33797e-08 1
f 22/85/20 14/84/20 16/67/20 18/66/20 

vt 170.246 147.167
vn 2.91933e-09 0.886657 0.462428
vt 91.3191 268.035
vt 12.3926 147.167
f 38/88/21 2/89/21 7/90/21

vt 73.6784 -2.23566
vn 0.577922 0.816092 -2.86908e-08
vt 149.784 94.477
vt 42.6158 -2.23565
f 3/91/22 2/92/22 38/93/22

f 38/70/4 15/24/4 3/23/4

vt 0 0
vn 0 -1 -0
v -5 2.83086 1.63335
vt -36.201 36.201
vt -182.638 0
f 35/94/23 39/95/23 20/96/23

v -5 2.83086 -4.13665
vt -36.201 263.366
f 39/95/23 35/94/23 40/97/23

vt 0 299.567
f 32/98/23 40/97/23 35/94/23

vt -429.902 299.567
f 40/97/23 32/98/23 34/99/23

v 5.27605 2.83086 -4.13665
vt -440.77 263.366
f 40/97/23 34/99/23 41/100/23

vt -476.971 299.567
f 41/100/23 34/99/23 28/101/23

v 5.27605 2.83086 1.63335
vt -440.77 36.201
f 41/100/23 28/101/23 42/102/23

vt -476.971 0
f 25/103/23 42/102/23 28/101/23

vt -429.902 0
f 27/104/23 42/102/23 25/103/23

v 2.2 2.83086 1.63335
vt -319.666 36.201
f 27/104/23 43/105/23 42/102/23

vt -283.465 0
f 23/106/23 43/105/23 27/104/23

v 2.2 2.83086 -4.44089e-16
vt -319.666 100.506
f 23/106/23 44/107/23 43/105/23

vt -283.465 64.3049
f 21/108/23 44/107/23 23/106/23

vt -182.638 64.3049
f 19/109/23 44/107/23 21/108/23

v -2.2 2.83086 -4.44089e-16
vt -146.437 100.506
f 19/109/23 45/110/23 44/107/23

v -2.2 2.83086 1.63335
vt -146.437 36.201
f 45/110/23 19/109/23 46/111/23

f 20/96/23 46/111/23 19/109/23

f 20/96/23 39/95/23 46/111/23

v -5 0 1.63335
vt 36.201 0
vn 0 0 1
v -2.2 0 1.63335
vt 146.437 0
vt 146.437 111.451
vt 36.201 111.451
f 47/112/24 48/113/24 46/114/24 39/115/24 

v 2.2 0 -4.44089e-16
v -2.2 0 -4.44089e-16
v -5 0 -4.13665
v 5.27605 0 -4.13665
v 5.27605 0 1.63335
v 2.2 0 1.63335
f 49/107/23 50/110/23 48/111/23 47/95/23 51/97/23 52/100/23 53/102/23 54/105/23 

vn 4.10177e-17 0 1
vt 319.666 0
vt 319.666 111.451
f 50/113/25 49/116/25 44/117/25 45/114/25 

vt -100.506 0
vn -1 0 1.45969e-07
vt -36.2009 0
vt -36.2009 111.451
vt -100.506 111.451
f 49/118/26 54/119/26 43/120/26 44/121/26 

vt 440.77 0
vt 440.77 111.451
f 54/116/24 53/122/24 42/123/24 43/117/24 

vn 1 0 -0
vt 263.366 0
vt 263.366 111.451
f 42/115/27 53/112/27 52/124/27 41/125/27 

vt -440.77 111.451
vn 0 0 -1
vt -440.77 0
vt -36.201 0
vt -36.201 111.451
f 41/126/28 52/127/28 51/128/28 40/129/28 

vt -263.366 0
vn -1 0 1.25115e-16
vt -263.366 111.451
f 51/130/29 47/128/29 39/129/29 40/131/29 

vn 1 0 -1.45969e-07
vt 100.506 0
vt 100.506 111.451
f 48/112/30 50/132/30 45/133/30 46/115/30 

vt -476.971 255.649
f 25/103/23 28/101/23 31/134/23

vt -476.971 254.082
f 25/103/23 31/134/23 30/135/23

vt -149.784 476.631
vn -0.565332 0.824864 1.48552e-08
vt -73.6784 377.764
vt -42.6158 377.764
f 1/136/31 4/137/31 13/138/31

vt 377.409 268.035
vn 4.24586e-09 0.886657 0.462428
vt 295.857 147.167
vt 458.96 147.167
f 1/139/32 13/140/32 11/141/32

vt 256.951 -244.857
vn 0.565332 0.824864 -7.73412e-09
vt 149.784 -145.991
vt 42.6158 -244.857
f 6/142/33 1/143/33 11/144/33

